<svg xmlns="http://www.w3.org/2000/svg" width="512" height="512" viewBox="0 0 367.011 367.01"><g fill="#ed1c27"><path d="M365.221 329.641L190.943 27.788a8.636 8.636 0 0 0-14.959 0L1.157 330.584a8.64 8.64 0 0 0 0 8.639 8.633 8.633 0 0 0 7.48 4.318h349.736a8.636 8.636 0 0 0 6.848-13.9zm-341.622-3.375L183.464 49.381l159.864 276.885H23.599z"/><path d="M174.826 136.801v123.893a8.636 8.636 0 0 0 8.638 8.638 8.635 8.635 0 0 0 8.637-8.638V136.801c0-4.766-3.867-8.637-8.637-8.637-4.771.001-8.638 3.872-8.638 8.637zm8.638 142.592c-5.922 0-10.725 4.8-10.725 10.722s4.803 10.729 10.725 10.729c5.921 0 10.725-4.809 10.725-10.729 0-5.922-4.803-10.722-10.725-10.722z"/></g></svg>